<svg xmlns="http://www.w3.org/2000/svg" viewBox="0 0 188 35.52"><g data-name="레이어 2"><path d="M27.67 18.27a4.31 4.31 0 00-3.05 1.27.83.83 0 01-.53.18 1 1 0 01-.3-.05l-8.19-5a.87.87 0 01-.39-.72v-.11a3.24 3.24 0 00.12-.89 3.29 3.29 0 00-.25-1.26.73.73 0 010-.25.87.87 0 01.28-.64l3.1-2.34a.77.77 0 01.4-.11.88.88 0 01.48.15 4.85 4.85 0 10-1.64-3.63 4.75 4.75 0 00.4 1.92.92.92 0 01.09.38.84.84 0 01-.21.55l-3.31 2.51a.73.73 0 01-.36.08.91.91 0 01-.37-.08l-.18-.11a3.28 3.28 0 10-1.64 6.12 3.24 3.24 0 002.19-.85.93.93 0 01.44-.12.85.85 0 01.35.08l8.14 5a.86.86 0 01.42.74.68.68 0 010 .14 4.31 4.31 0 00-.23 1.39v.17a.88.88 0 01-.48.78l-9.78 3H13a.89.89 0 01-.73-.39 6.46 6.46 0 10.68 2.88v-.76a.53.53 0 010-.13.86.86 0 01.56-.81l9.53-3a1 1 0 01.25 0 .89.89 0 01.76.44 4.31 4.31 0 103.69-6.54zm40.81 4.64a5.34 5.34 0 01-5.34 5.35H52.73A6.29 6.29 0 0146.44 22v-8.66a6.29 6.29 0 016.29-6.28h9.47a6.28 6.28 0 016.28 6.28v.43h3.21v-.18c0-5.09-3.19-9.22-8.29-9.22H52.46a9.23 9.23 0 00-9.23 9.22v8.33a9.23 9.23 0 009.23 9.23H63.4c5.1 0 8.29-4.13 8.29-9.23v-.14h-3.21zm18.13 5.58V4.34h-3.22v26.83h19v-2.68H86.61zm98.46-24.16l-10.66 22.81-4.61-9.84 5.93-12.97h-3.22l-4.38 9.38-4.39-9.37h-3.21l5.92 12.96-4.6 9.84-10.66-22.8h-3.22l12.27 26.85h3.22l4.67-10.22 4.67 10.22h3.21L188 4.37l-2.93-.04zM114.04 28.5h24.18v2.69h-24.18zm0-24.18h24.18v2.69h-24.18zm0 12.09h24.18v2.69h-24.18z" fill="#fff" data-name="레이어 1"/></g></svg>